<svg xmlns="http://www.w3.org/2000/svg" width="636" height="240" viewBox="0 0 636 240" fill="none"><style>.a{fill:#F0C7BE;}.b{fill:#ACDBCD;}.c{fill:#E3F5F6;}.d{fill:white;}</style><g clip-path="url(#clip0)"><path d="M584.7 96.8C584.5 96.9 584.3 97 584.1 97.2 583.7 97.6 583.2 97.7 582.7 97.7 580.2 97.5 577.8 98.3 575.9 99.8 574.1 101.4 572.9 103.6 572.6 106 572.6 106.5 572.3 107 571.9 107.4 571.9 107.4 571.9 107.4 571.9 107.4 570.6 108.6 570.2 110.3 570.5 112.3 570.8 114.2 571.8 116.1 573.3 117.7 574.8 119.4 576.6 120.5 578.5 120.9 580.4 121.4 582.1 121.1 583.4 120L583.4 120 583.9 119.6C585.4 118.3 586.5 116.6 586.9 114.5 587 114.1 587.2 113.8 587.5 113.5 587.7 113.3 588.1 113.2 588.5 113.1 590.6 113.1 592.5 112.4 594 111.1L594 111.1 594.1 111.1C595.3 110 596 108.4 596.1 106.5 596.1 104.6 595.5 102.7 594.3 100.8 593.1 99 591.5 97.5 589.8 96.8 587.9 95.9 586.1 95.9 584.7 96.8V96.8Z" class="a"/><path d="M570.6 101.5C572.2 100.1 572.2 97.5 570.6 95.6 569 93.7 566.5 93.3 564.8 94.7 563.2 96 563.2 98.7 564.8 100.6 566.3 102.4 568.9 102.9 570.6 101.5Z" class="a"/><path d="M577.7 95.5C579.4 94.1 579.4 91.5 577.8 89.6 576.2 87.7 573.6 87.3 572 88.6 570.4 90 570.4 92.6 571.9 94.5 573.5 96.4 576.1 96.8 577.7 95.5Z" class="a"/><path d="M566.6 111.4C568.3 110.1 568.3 107.4 566.7 105.5 565.1 103.6 562.5 103.2 560.9 104.6 559.3 105.9 559.2 108.6 560.8 110.5 562.4 112.3 565 112.8 566.6 111.4Z" class="a"/><path d="M582.4 86.5C580.8 87.9 580.8 90.5 582.4 92.4 584 94.3 586.6 94.7 588.2 93.3 589.8 92 589.8 89.3 588.3 87.4 586.7 85.6 584.1 85.1 582.4 86.5V86.5Z" class="a"/></g><g clip-path="url(#clip1)"><path d="M513.6 157.5L544.1 168.6 542 174.1 511.6 163 513.6 157.5Z" class="b"/><path d="M496.4 198.7L530.8 211.2 528.8 216.7 494.4 204.2 496.4 198.7Z" class="b"/><path d="M526 182.9L525.1 183.2 524.5 182.5C523.8 181.9 523.1 181.5 522.2 181.2 521.4 180.9 520.5 180.7 519.7 180.8L518.7 180.9 518.3 180C517.8 179.2 516.8 178.1 514.9 177.5 514.2 178.5 513.2 180.7 514.3 183.1L514.6 183.7C514.6 183.7 514.3 184.2 514 185 513.2 187.4 513.7 190.9 514.1 192.3 514.3 192.8 514.5 193.1 514.9 193.2L514.9 193.2C515.5 193.4 516.2 193.2 516.4 192.8L517.6 189.7 520.3 190.7 519.2 193.8C519.1 194.3 519.6 194.9 520.1 195.1L520.1 195.1C520.6 195.3 520.9 195.2 521.3 194.9 522.5 194.1 525.2 191.8 526.1 189.4 526.4 188.5 526.4 188.1 526.4 188.1L527.1 187.7C529.5 186.6 530.1 184.3 530.2 183 528.3 182.3 526.9 182.5 526 182.9V182.9Z" class="b"/><path d="M541.3 177L510.3 165.7C502.5 173.9 497.9 184.6 497.2 195.8L532 208.5C538.6 199.4 542 188.3 541.3 177ZM529.1 197.1L525 195.6C525 195.6 527.3 199.1 527.3 199.1L524.8 200.7 522.7 197.5C521.6 198.2 520.3 198.3 519.2 197.9 518.2 197.6 517.4 196.9 516.8 196 516.3 195.1 516.8 196 516.8 196 515.9 196.3 514.8 196.3 513.8 196 512.7 195.5 511.8 194.6 511.4 193.4L507.7 194.5 506.9 191.7C506.9 191.7 510.8 190.5 510.8 190.5L506.7 189 507.7 186.2 510.6 187.2C510.7 186.2 510.9 184.9 511.4 183.7 509.6 178.8 513.1 174.9 513.2 174.8L513.8 174.1 514.7 174.3C517.7 175 519.4 176.5 520.4 177.8 521.3 177.9 522.3 178.1 523.2 178.4 524.2 178.7 525 179.2 525.8 179.8 527.4 179.4 529.7 179.4 532.4 180.8L533.2 181.2 533.2 182C533.2 182.3 533.4 187.5 529 190.1 528.5 191.3 527.9 192.4 527.2 193.3L530.2 194.4 529.1 197.1 529.1 197.1Z" class="b"/></g><g clip-path="url(#clip2)"><path d="M544.7 20.5L538.3 9.2C537.3 7.5 535.2 6.7 533.4 7.4L507.3 16.9C505.4 17.6 504.4 19.5 504.7 21.4L507.1 34.2 514.5 31.5 511.3 22.6C511 21.9 511.4 21.1 512.1 20.9L532.3 13.5C533 13.3 533.8 13.6 534 14.3L537.3 23.2 544.7 20.5Z" class="c"/><path d="M526.2 24.3L533.8 21.6 534.7 24.1 527.1 26.9 526.2 24.3Z" class="c"/><path d="M524.4 19.3L532 16.5 532.9 19 525.3 21.8 524.4 19.3Z" class="c"/><path d="M516.1 28L523.7 25.3 524.6 27.8 517 30.6 516.1 28Z" class="c"/><path d="M514.3 23L521.8 20.2 522.8 22.7 515.2 25.5 514.3 23Z" class="c"/><path d="M547.1 22.5L506.5 37.3C505.8 37.5 505.4 38.3 505.7 39L506.6 41.5C506.8 42.2 507.6 42.6 508.3 42.3L549 27.5C549.7 27.3 550 26.5 549.8 25.8L548.8 23.3C548.6 22.6 547.8 22.2 547.1 22.5Z" class="c"/><path d="M549 38.4L547.8 30.8 511.3 44.1 515.3 50.6C516.3 52.3 518.3 53 520.1 52.3L546.3 42.8C548.2 42.1 549.2 40.3 549 38.4V38.4ZM536.5 40.7L526.3 44.3C525.6 44.6 524.9 44.2 524.6 43.5 524.4 42.8 524.7 42.1 525.4 41.8L535.5 38.1C536.2 37.9 537 38.2 537.3 38.9 537.5 39.6 537.2 40.4 536.5 40.7Z" class="c"/></g><g clip-path="url(#clip3)"><path d="M631.7 161.2C631.5 158.6 629.5 156.6 626.9 156.4 622.5 156.2 614.5 156.8 610.6 163.4 610.4 163.7 610.3 164 610.4 164.4 610.4 164.5 611.2 168.4 614 172.1L612.7 173.4C611.4 172.4 609.8 171.7 608.2 171.4 607.4 171.3 606.7 171.8 606.6 172.6 606.4 173.4 607 174.1 607.7 174.2 608.8 174.4 609.8 174.8 610.7 175.4L608.4 177.7C607.1 176.7 605.5 176 603.9 175.7 603.1 175.6 602.4 176.1 602.3 176.9 602.1 177.7 602.7 178.4 603.4 178.5 604.5 178.7 605.5 179.1 606.4 179.7L604.1 182C602.8 181 601.3 180.3 599.6 180 598.8 179.9 598.1 180.4 598 181.2 597.9 181.9 598.4 182.7 599.1 182.8 600.2 183 601.2 183.4 602.1 184L600.1 186.1C598.3 184.8 596.2 184 594 184 591.3 184 588.8 185.1 586.9 187L584.2 189.8C583.6 190.3 583.6 191.2 584.2 191.7 586.1 193.6 588.6 194.7 591.3 194.7 592.1 194.7 592.9 194.6 593.7 194.4 593.5 195.2 593.4 196 593.4 196.9 593.4 199.5 594.5 202.1 596.4 204 596.9 204.5 597.8 204.5 598.3 204L601.1 201.2C603 199.3 604.1 196.8 604.1 194.1 604.1 191.9 603.4 189.8 602 188L604.1 186C604.7 186.9 605.1 187.9 605.3 189 605.4 189.7 606.1 190.2 606.9 190.1 607.7 190 608.2 189.3 608.1 188.5 607.8 186.8 607.1 185.3 606.1 184L608.4 181.7C609 182.6 609.4 183.6 609.6 184.7 609.7 185.4 610.4 186 611.2 185.8 612 185.7 612.5 185 612.4 184.2 612.1 182.6 611.4 181 610.4 179.7L612.7 177.4C613.3 178.3 613.7 179.3 613.9 180.4 614 181.1 614.6 181.6 615.3 181.6 615.3 181.6 615.4 181.6 615.5 181.5 616.3 181.4 616.8 180.7 616.7 179.9 616.4 178.3 615.7 176.7 614.7 175.4L616 174.1C619.5 176.7 623.4 177.7 624 177.7 624.3 177.7 624.5 177.7 624.7 177.5 631.3 173.6 631.9 165.6 631.7 161.2V161.2ZM624.4 165.1C623.6 165.1 623 164.5 623 163.7 623 163 623.6 162.3 624.4 162.3 625.2 162.3 625.8 163 625.8 163.7 625.8 164.5 625.2 165.1 624.4 165.1Z" class="c"/></g><g clip-path="url(#clip4)"><path d="M53.3 44C53.1 44 52.9 44 52.7 44.1 52.3 44.2 51.8 44.1 51.4 43.8 49.7 42.6 47.5 42.1 45.5 42.5 43.4 42.9 41.6 44 40.3 45.7 40.1 46.1 39.7 46.3 39.3 46.4 39.2 46.4 39.2 46.4 39.2 46.4 37.8 46.7 36.7 47.8 36.1 49.5 35.5 51 35.4 52.9 35.8 54.7 36.2 56.6 37.1 58.2 38.3 59.3 39.5 60.5 40.9 61 42.3 60.8L42.3 60.8 42.9 60.7C44.6 60.4 46.1 59.5 47.3 58.1 47.5 57.9 47.8 57.7 48.2 57.7 48.5 57.6 48.8 57.7 49.1 57.8 50.7 58.7 52.4 59 54.1 58.7L54.1 58.7 54.1 58.7C55.5 58.4 56.8 57.5 57.6 56.1 58.4 54.8 58.8 53.1 58.7 51.2 58.6 49.3 58.1 47.5 57.1 46.2 56.1 44.7 54.7 44 53.3 44V44Z" class="a"/><path d="M40.7 41.4C42.5 41.1 43.7 39.2 43.3 37.1 43 35 41.2 33.6 39.4 33.9 37.6 34.2 36.5 36.1 36.8 38.2 37.2 40.3 38.9 41.7 40.7 41.4Z" class="a"/><path d="M48.7 40C50.5 39.7 51.6 37.8 51.3 35.7 50.9 33.6 49.1 32.2 47.4 32.5 45.6 32.8 44.4 34.7 44.8 36.8 45.1 38.9 46.9 40.3 48.7 40Z" class="a"/><path d="M33.5 47.1C35.3 46.8 36.5 44.9 36.1 42.8 35.8 40.7 34 39.2 32.2 39.6 30.4 39.9 29.3 41.8 29.6 43.9 30 46 31.8 47.4 33.5 47.1Z" class="a"/><path d="M56.1 35.4C54.3 35.7 53.1 37.6 53.5 39.7 53.8 41.8 55.6 43.2 57.4 42.9 59.2 42.6 60.3 40.6 60 38.6 59.6 36.5 57.8 35 56.1 35.4V35.4Z" class="a"/></g><g clip-path="url(#clip5)"><path d="M21.5 189.4L46.2 198.4 44.6 202.9 19.9 193.9 21.5 189.4Z" class="c"/><path d="M7.5 222.8L35.5 233 33.8 237.5 5.9 227.3 7.5 222.8Z" class="c"/><path d="M31.6 210L30.9 210.2 30.3 209.7C29.8 209.2 29.2 208.8 28.5 208.6 27.8 208.4 27.1 208.3 26.4 208.3L25.7 208.3 25.3 207.7C24.9 207 24.1 206.1 22.6 205.6 22 206.5 21.2 208.2 22.1 210.2L22.3 210.7C22.3 210.7 22.1 211 21.9 211.7 21.2 213.6 21.6 216.5 21.9 217.6 22 218 22.2 218.2 22.6 218.4L22.6 218.4C23 218.5 23.6 218.4 23.8 218L24.7 215.5 27 216.3 26.1 218.8C26 219.3 26.3 219.8 26.8 219.9L26.8 219.9C27.2 220 27.4 220 27.8 219.8 28.8 219.1 30.9 217.2 31.6 215.3 31.9 214.6 31.9 214.2 31.9 214.2L32.4 213.9C34.4 213 34.9 211.1 35 210.1 33.5 209.5 32.3 209.7 31.6 210V210Z" class="c"/><path d="M44 205.2L18.8 196C12.5 202.7 8.8 211.4 8.2 220.5L36.4 230.8C41.8 223.4 44.5 214.4 44 205.2ZM34.1 221.6L30.8 220.3C30.8 220.3 32.6 223.1 32.6 223.1L30.6 224.5 28.9 221.9C28 222.4 27 222.5 26 222.2 25.2 221.9 24.6 221.3 24.1 220.6 23.7 219.9 24.1 220.6 24.1 220.6 23.4 220.9 22.5 220.9 21.7 220.6 20.7 220.3 20 219.5 19.7 218.5L16.7 219.4 16.1 217.1C16.1 217.1 19.3 216.1 19.3 216.1L15.9 214.9 16.7 212.7 19.1 213.5C19.1 212.7 19.4 211.6 19.7 210.6 18.3 206.7 21.1 203.5 21.2 203.4L21.7 202.9 22.4 203C24.8 203.6 26.2 204.8 27 205.9 27.8 205.9 28.6 206.1 29.3 206.3 30.1 206.6 30.8 207 31.4 207.5 32.7 207.2 34.6 207.1 36.8 208.3L37.4 208.6 37.5 209.3C37.5 209.5 37.6 213.7 34 215.8 33.6 216.8 33.1 217.7 32.6 218.4L35 219.3 34.1 221.6 34.1 221.6Z" class="c"/></g><circle cx="64.1" cy="103.4" r="5.1" class="c"/><circle cx="12.4" cy="144" r="5.1" class="c"/><circle cx="127.1" cy="39.1" r="5.1" class="b"/><circle cx="79.8" cy="166.1" r="5.1" class="b"/><circle cx="630.3" cy="24.1" r="5.1" class="b"/><g clip-path="url(#clip6)"><path d="M189.7 209.4C189.5 209.3 189.2 209.1 188.8 209 188.2 208.8 187.7 208.4 187.4 207.7 186 204.8 183.5 202.6 180.5 201.5 177.6 200.4 174.3 200.5 171.4 201.8 170.8 202.1 170.1 202.1 169.4 201.9 169.4 201.9 169.4 201.8 169.3 201.8 167.2 201.2 165 201.8 162.9 203.5 161 205.1 159.5 207.5 158.6 210.2 157.8 212.9 157.7 215.7 158.4 218.1 159.1 220.6 160.6 222.3 162.6 223.1L162.6 223.1 163.4 223.4C165.9 224.3 168.5 224.3 171.1 223.4 171.6 223.2 172.1 223.3 172.6 223.4 173 223.6 173.4 223.9 173.7 224.4 175.2 226.7 177.2 228.4 179.6 229.2L179.6 229.2 179.7 229.3C181.7 230 184 229.7 186.1 228.6 188.3 227.4 190.1 225.5 191.4 222.9 192.7 220.4 193.3 217.6 193.1 215.1 192.8 212.5 191.6 210.4 189.7 209.4Z" class="b"/><path d="M175.2 196.5C177.7 197.4 180.7 195.8 181.8 192.7 182.9 189.7 181.7 186.5 179.1 185.6 176.5 184.6 173.5 186.3 172.4 189.3 171.3 192.3 172.6 195.6 175.2 196.5Z" class="b"/><path d="M186.6 200.7C189.2 201.6 192.2 199.9 193.3 196.9 194.4 193.9 193.2 190.7 190.6 189.8 188 188.8 185 190.5 183.9 193.5 182.8 196.5 184.1 199.7 186.6 200.7Z" class="b"/><path d="M161.4 198.5C164 199.5 167 197.8 168.1 194.8 169.2 191.8 168 188.5 165.4 187.6 162.8 186.7 159.8 188.3 158.7 191.3 157.6 194.4 158.8 197.6 161.4 198.5Z" class="b"/><path d="M199.9 200.1C197.3 199.2 194.3 200.9 193.2 203.9 192.1 206.9 193.3 210.1 195.9 211.1 198.5 212 201.5 210.3 202.6 207.3 203.7 204.3 202.4 201.1 199.9 200.1Z" class="b"/></g><defs><clipPath><rect width="35.8" height="35.8" transform="translate(553.282 101.469)rotate(-40)" class="d"/></clipPath><clipPath><rect width="50.5" height="50.5" transform="translate(505.105 154.403)rotate(20)" class="d"/></clipPath><clipPath><rect width="45.9" height="45.9" transform="translate(497.343 16.126)rotate(-20)" class="d"/></clipPath><clipPath><rect width="48" height="48" class="d"/></clipPath><clipPath><rect width="30.8" height="30.8" transform="translate(27.8826 33.97)rotate(-10)" class="d"/></clipPath><clipPath><rect width="41" height="41" transform="translate(14.6197 186.873)rotate(20)" class="d"/></clipPath><clipPath><rect width="46.7" height="46.7" transform="translate(163.931 176.967)rotate(20)" class="d"/></clipPath></defs></svg>